<svg width="220" height="244" viewBox="0 0 220 244" fill="none" xmlns="http://www.w3.org/2000/svg">
<path d="M109.5 0L121.376 17.3289L140 14L128.715 47.9686L128.35 74.6922L109.5 66.905L90.65 74.6922L90.285 47.9686L79 14L97.6245 17.3289L109.5 0Z" fill="#C50C3A"/>
<path d="M109.5 83L97.6245 61.6711L79 52.9422L90.285 31.0314L90.65 4.30776L109.5 12.095L128.35 4.30777L128.715 31.0314L140 52.9422L121.376 61.6711L109.5 83Z" fill="#C50C3A"/>
<g filter="url(#filter0_d_1_16)">
<circle cx="110" cy="134" r="100" fill="#C50C3A"/>
</g>
<g filter="url(#filter1_i_1_16)">
<circle cx="110" cy="134" r="84" fill="#46051C"/>
</g>
<g filter="url(#filter2_i_1_16)">
<path d="M110 50C124.758 50 139.255 53.888 152.032 61.2725C164.81 68.657 175.416 79.2774 182.783 92.0645C190.151 104.852 194.02 119.354 194 134.112C193.98 148.869 190.073 163.361 182.672 176.129C175.27 188.896 164.636 199.489 151.839 206.839C139.042 214.19 124.534 218.039 109.777 218C95.0189 217.96 80.532 214.034 67.7744 206.615C55.0168 199.197 44.4388 188.548 37.1054 175.742L110 134L110 50Z" fill="#771839"/>
</g>
<g filter="url(#filter3_d_1_16)">
<circle cx="110" cy="134" r="45" fill="#FFA7B7"/>
</g>
<defs>
<filter id="filter0_d_1_16" x="0.8" y="24.8" width="218.4" height="218.4" filterUnits="userSpaceOnUse" color-interpolation-filters="sRGB">
<feFlood flood-opacity="0" result="BackgroundImageFix"/>
<feColorMatrix in="SourceAlpha" type="matrix" values="0 0 0 0 0 0 0 0 0 0 0 0 0 0 0 0 0 0 127 0" result="hardAlpha"/>
<feOffset/>
<feGaussianBlur stdDeviation="4.6"/>
<feComposite in2="hardAlpha" operator="out"/>
<feColorMatrix type="matrix" values="0 0 0 0 0 0 0 0 0 0 0 0 0 0 0 0 0 0 0.25 0"/>
<feBlend mode="normal" in2="BackgroundImageFix" result="effect1_dropShadow_1_16"/>
<feBlend mode="normal" in="SourceGraphic" in2="effect1_dropShadow_1_16" result="shape"/>
</filter>
<filter id="filter1_i_1_16" x="26" y="50" width="168" height="172" filterUnits="userSpaceOnUse" color-interpolation-filters="sRGB">
<feFlood flood-opacity="0" result="BackgroundImageFix"/>
<feBlend mode="normal" in="SourceGraphic" in2="BackgroundImageFix" result="shape"/>
<feColorMatrix in="SourceAlpha" type="matrix" values="0 0 0 0 0 0 0 0 0 0 0 0 0 0 0 0 0 0 127 0" result="hardAlpha"/>
<feOffset dy="4"/>
<feGaussianBlur stdDeviation="2"/>
<feComposite in2="hardAlpha" operator="arithmetic" k2="-1" k3="1"/>
<feColorMatrix type="matrix" values="0 0 0 0 0 0 0 0 0 0 0 0 0 0 0 0 0 0 0.25 0"/>
<feBlend mode="normal" in2="shape" result="effect1_innerShadow_1_16"/>
</filter>
<filter id="filter2_i_1_16" x="33.1054" y="48" width="160.895" height="170" filterUnits="userSpaceOnUse" color-interpolation-filters="sRGB">
<feFlood flood-opacity="0" result="BackgroundImageFix"/>
<feBlend mode="normal" in="SourceGraphic" in2="BackgroundImageFix" result="shape"/>
<feColorMatrix in="SourceAlpha" type="matrix" values="0 0 0 0 0 0 0 0 0 0 0 0 0 0 0 0 0 0 127 0" result="hardAlpha"/>
<feOffset dx="-4" dy="-2"/>
<feGaussianBlur stdDeviation="2"/>
<feComposite in2="hardAlpha" operator="arithmetic" k2="-1" k3="1"/>
<feColorMatrix type="matrix" values="0 0 0 0 0 0 0 0 0 0 0 0 0 0 0 0 0 0 0.25 0"/>
<feBlend mode="normal" in2="shape" result="effect1_innerShadow_1_16"/>
</filter>
<filter id="filter3_d_1_16" x="56.3" y="84.3" width="107.4" height="107.4" filterUnits="userSpaceOnUse" color-interpolation-filters="sRGB">
<feFlood flood-opacity="0" result="BackgroundImageFix"/>
<feColorMatrix in="SourceAlpha" type="matrix" values="0 0 0 0 0 0 0 0 0 0 0 0 0 0 0 0 0 0 127 0" result="hardAlpha"/>
<feMorphology radius="5" operator="erode" in="SourceAlpha" result="effect1_dropShadow_1_16"/>
<feOffset dy="4"/>
<feGaussianBlur stdDeviation="6.85"/>
<feComposite in2="hardAlpha" operator="out"/>
<feColorMatrix type="matrix" values="0 0 0 0 0 0 0 0 0 0 0 0 0 0 0 0 0 0 1 0"/>
<feBlend mode="normal" in2="BackgroundImageFix" result="effect1_dropShadow_1_16"/>
<feBlend mode="normal" in="SourceGraphic" in2="effect1_dropShadow_1_16" result="shape"/>
</filter>
</defs>
</svg>
