<svg width="756" height="893" viewBox="0 0 756 893" fill="none" xmlns="http://www.w3.org/2000/svg">
<path d="M378.192 8.00676L376.13 4.99754L374.068 8.00676L351.053 41.5906L306.585 23.2204L303.181 21.8142L303.131 25.4969L302.571 66.4813L262.5 59.319L258.362 58.5795L259.688 62.5682L288.769 150.106L259.837 206.279L258.649 208.586L260.999 209.688L302.315 229.052L303.131 288.803L303.181 292.486L306.585 291.08L347.78 274.061L373.946 321.056L376.13 324.979L378.314 321.056L404.48 274.061L445.675 291.08L449.079 292.486L449.129 288.803L449.945 229.052L491.261 209.688L493.611 208.586L492.423 206.279L463.491 150.106L492.572 62.5682L493.898 58.5795L489.76 59.319L449.689 66.4813L449.129 25.4969L449.079 21.8142L445.675 23.2205L401.207 41.5906L378.192 8.00676Z" fill="url(#paint0_linear_1_36)" stroke="url(#paint1_linear_1_36)" stroke-width="5"/>
<g filter="url(#filter0_d_1_36)">
<circle cx="378" cy="510.58" r="374" fill="url(#paint2_linear_1_36)"/>
<circle cx="378" cy="510.58" r="371" stroke="url(#paint3_linear_1_36)" stroke-opacity="0.44" stroke-width="6"/>
</g>
<g filter="url(#filter1_i_1_36)">
<circle cx="378" cy="510.58" r="314.16" fill="#46051C"/>
</g>
<g filter="url(#filter2_i_1_36)">
<path d="M378 196.42C433.194 196.42 487.414 210.961 535.201 238.579C582.988 266.197 622.655 305.918 650.21 353.741C677.764 401.565 692.233 455.804 692.16 510.998C692.086 566.192 677.473 620.392 649.792 668.142C622.11 715.892 582.337 755.507 534.476 782.998C486.616 810.489 432.358 824.886 377.164 824.739C321.971 824.592 267.79 809.907 220.076 782.162C172.363 754.417 132.801 714.591 105.374 666.694L378 510.58L378 196.42Z" fill="url(#paint4_linear_1_36)"/>
</g>
<g filter="url(#filter3_d_1_36)">
<circle cx="378" cy="510.58" r="168.3" fill="#FFA7B7"/>
</g>
<mask id="mask0_1_36" style="mask-type:alpha" maskUnits="userSpaceOnUse" x="209" y="342" width="338" height="337">
<circle cx="378" cy="510.58" r="168.3" fill="#FFA7B7"/>
</mask>
<g mask="url(#mask0_1_36)">
<g filter="url(#filter4_f_1_36)">
<path d="M364.028 372.907C398.751 369.383 433.524 379.11 461.379 400.14C489.234 421.17 508.113 451.948 514.235 486.309L378 510.58L364.028 372.907Z" fill="#FFD5DC"/>
</g>
<g filter="url(#filter5_f_1_36)">
<path d="M502.613 570.752C491.43 593.912 474.014 613.497 452.319 627.309C430.625 641.121 405.511 648.615 379.794 648.948C354.078 649.282 328.778 642.442 306.733 629.197C284.688 615.952 266.77 596.825 254.99 573.964L378 510.58L502.613 570.752Z" fill="#FF7992"/>
</g>
</g>
<defs>
<filter id="filter0_d_1_36" x="0" y="136.58" width="756" height="756" filterUnits="userSpaceOnUse" color-interpolation-filters="sRGB">
<feFlood flood-opacity="0" result="BackgroundImageFix"/>
<feColorMatrix in="SourceAlpha" type="matrix" values="0 0 0 0 0 0 0 0 0 0 0 0 0 0 0 0 0 0 127 0" result="hardAlpha"/>
<feOffset dy="4"/>
<feGaussianBlur stdDeviation="2"/>
<feComposite in2="hardAlpha" operator="out"/>
<feColorMatrix type="matrix" values="0 0 0 0 0 0 0 0 0 0 0 0 0 0 0 0 0 0 0.25 0"/>
<feBlend mode="normal" in2="BackgroundImageFix" result="effect1_dropShadow_1_36"/>
<feBlend mode="normal" in="SourceGraphic" in2="effect1_dropShadow_1_36" result="shape"/>
</filter>
<filter id="filter1_i_1_36" x="63.84" y="196.42" width="628.32" height="632.32" filterUnits="userSpaceOnUse" color-interpolation-filters="sRGB">
<feFlood flood-opacity="0" result="BackgroundImageFix"/>
<feBlend mode="normal" in="SourceGraphic" in2="BackgroundImageFix" result="shape"/>
<feColorMatrix in="SourceAlpha" type="matrix" values="0 0 0 0 0 0 0 0 0 0 0 0 0 0 0 0 0 0 127 0" result="hardAlpha"/>
<feMorphology radius="9" operator="erode" in="SourceAlpha" result="effect1_innerShadow_1_36"/>
<feOffset dy="4"/>
<feGaussianBlur stdDeviation="2"/>
<feComposite in2="hardAlpha" operator="arithmetic" k2="-1" k3="1"/>
<feColorMatrix type="matrix" values="0 0 0 0 0 0 0 0 0 0 0 0 0 0 0 0 0 0 0.25 0"/>
<feBlend mode="normal" in2="shape" result="effect1_innerShadow_1_36"/>
</filter>
<filter id="filter2_i_1_36" x="105.374" y="194.42" width="586.786" height="630.32" filterUnits="userSpaceOnUse" color-interpolation-filters="sRGB">
<feFlood flood-opacity="0" result="BackgroundImageFix"/>
<feBlend mode="normal" in="SourceGraphic" in2="BackgroundImageFix" result="shape"/>
<feColorMatrix in="SourceAlpha" type="matrix" values="0 0 0 0 0 0 0 0 0 0 0 0 0 0 0 0 0 0 127 0" result="hardAlpha"/>
<feMorphology radius="1" operator="dilate" in="SourceAlpha" result="effect1_innerShadow_1_36"/>
<feOffset dy="-2"/>
<feGaussianBlur stdDeviation="7.45"/>
<feComposite in2="hardAlpha" operator="arithmetic" k2="-1" k3="1"/>
<feColorMatrix type="matrix" values="0 0 0 0 0 0 0 0 0 0 0 0 0 0 0 0 0 0 0.25 0"/>
<feBlend mode="normal" in2="shape" result="effect1_innerShadow_1_36"/>
</filter>
<filter id="filter3_d_1_36" x="201" y="337.58" width="354" height="354" filterUnits="userSpaceOnUse" color-interpolation-filters="sRGB">
<feFlood flood-opacity="0" result="BackgroundImageFix"/>
<feColorMatrix in="SourceAlpha" type="matrix" values="0 0 0 0 0 0 0 0 0 0 0 0 0 0 0 0 0 0 127 0" result="hardAlpha"/>
<feMorphology radius="5" operator="erode" in="SourceAlpha" result="effect1_dropShadow_1_36"/>
<feOffset dy="4"/>
<feGaussianBlur stdDeviation="6.85"/>
<feComposite in2="hardAlpha" operator="out"/>
<feColorMatrix type="matrix" values="0 0 0 0 0 0 0 0 0 0 0 0 0 0 0 0 0 0 1 0"/>
<feBlend mode="normal" in2="BackgroundImageFix" result="effect1_dropShadow_1_36"/>
<feBlend mode="normal" in="SourceGraphic" in2="effect1_dropShadow_1_36" result="shape"/>
</filter>
<filter id="filter4_f_1_36" x="287.128" y="295.3" width="304.007" height="292.18" filterUnits="userSpaceOnUse" color-interpolation-filters="sRGB">
<feFlood flood-opacity="0" result="BackgroundImageFix"/>
<feBlend mode="normal" in="SourceGraphic" in2="BackgroundImageFix" result="shape"/>
<feGaussianBlur stdDeviation="38.45" result="effect1_foregroundBlur_1_36"/>
</filter>
<filter id="filter5_f_1_36" x="151.59" y="407.18" width="454.423" height="345.18" filterUnits="userSpaceOnUse" color-interpolation-filters="sRGB">
<feFlood flood-opacity="0" result="BackgroundImageFix"/>
<feBlend mode="normal" in="SourceGraphic" in2="BackgroundImageFix" result="shape"/>
<feGaussianBlur stdDeviation="51.7" result="effect1_foregroundBlur_1_36"/>
</filter>
<linearGradient id="paint0_linear_1_36" x1="376.13" y1="9.42" x2="376.13" y2="319.84" gradientUnits="userSpaceOnUse">
<stop stop-color="#C50C3A"/>
<stop offset="1" stop-color="#5F061C"/>
</linearGradient>
<linearGradient id="paint1_linear_1_36" x1="376.13" y1="9.42" x2="376.13" y2="319.84" gradientUnits="userSpaceOnUse">
<stop stop-color="#FF7B8F"/>
<stop offset="0.415625" stop-color="#9C4865"/>
</linearGradient>
<linearGradient id="paint2_linear_1_36" x1="378" y1="136.58" x2="378" y2="884.58" gradientUnits="userSpaceOnUse">
<stop offset="0.100625" stop-color="#C50C3A"/>
<stop offset="0.225625" stop-color="#EA3966"/>
<stop offset="0.385625" stop-color="#C50C3A"/>
<stop offset="0.885" stop-color="#7D0C28"/>
<stop offset="1" stop-color="#6E021D"/>
</linearGradient>
<linearGradient id="paint3_linear_1_36" x1="378" y1="136.58" x2="378" y2="884.58" gradientUnits="userSpaceOnUse">
<stop stop-color="#FF7B8F"/>
<stop offset="1" stop-color="#9C4865"/>
</linearGradient>
<linearGradient id="paint4_linear_1_36" x1="378" y1="196.42" x2="378" y2="824.74" gradientUnits="userSpaceOnUse">
<stop stop-color="#731134"/>
<stop offset="1" stop-color="#BF2F61"/>
</linearGradient>
</defs>
</svg>
