<svg width="208" height="243" viewBox="0 0 208 243" fill="none" xmlns="http://www.w3.org/2000/svg">
<path d="M103.706 0.858676L103.5 0.557755L103.294 0.858676L96.9484 10.1179L84.7454 5.0767L84.405 4.93608L84.4 5.30435L84.2436 16.7557L73.044 14.7539L72.6302 14.6799L72.7628 15.0788L80.5941 38.6516L72.7777 53.8278L72.6589 54.0585L72.8939 54.1686L84.1782 59.4573L84.4 75.6956L84.405 76.0639L84.7454 75.9233L96.1042 71.2308L103.282 84.1216L103.5 84.5139L103.718 84.1216L110.896 71.2308L122.255 75.9233L122.595 76.0639L122.6 75.6956L122.822 59.4573L134.106 54.1686L134.341 54.0585L134.222 53.8278L126.406 38.6517L134.237 15.0788L134.37 14.6799L133.956 14.7539L122.756 16.7557L122.6 5.30435L122.595 4.93608L122.255 5.07671L110.052 10.1179L103.706 0.858676Z" fill="url(#paint0_linear_1_36)" stroke="url(#paint1_linear_1_36)" stroke-width="0.5"/>
<g filter="url(#filter0_d_1_36)">
<circle cx="104" cy="135" r="100" fill="url(#paint2_linear_1_36)"/>
<circle cx="104" cy="135" r="99.5" stroke="url(#paint3_linear_1_36)" stroke-opacity="0.44"/>
</g>
<g filter="url(#filter1_i_1_36)">
<circle cx="104" cy="135" r="84" fill="#46051C"/>
</g>
<g filter="url(#filter2_i_1_36)">
<path d="M104 51C118.758 51 133.255 54.888 146.032 62.2725C158.81 69.657 169.416 80.2774 176.783 93.0645C184.151 105.852 188.02 120.354 188 135.112C187.98 149.869 184.073 164.361 176.672 177.129C169.27 189.896 158.636 200.489 145.839 207.839C133.042 215.19 118.534 219.039 103.777 219C89.0189 218.96 74.532 215.034 61.7744 207.615C49.0168 200.197 38.4388 189.548 31.1054 176.742L104 135V51Z" fill="url(#paint4_linear_1_36)"/>
</g>
<g filter="url(#filter3_d_1_36)">
<circle cx="104" cy="135" r="45" fill="#FFA7B7"/>
</g>
<mask id="mask0_1_36" style="mask-type:alpha" maskUnits="userSpaceOnUse" x="59" y="90" width="90" height="90">
<circle cx="104" cy="135" r="45" fill="#FFA7B7"/>
</mask>
<g mask="url(#mask0_1_36)">
<g filter="url(#filter4_f_1_36)">
<path d="M100.264 98.1891C109.548 97.2468 118.846 99.8477 126.294 105.471C133.742 111.093 138.79 119.323 140.426 128.51L104 135L100.264 98.1891Z" fill="#FFD5DC"/>
</g>
<g filter="url(#filter5_f_1_36)">
<path d="M137.319 151.089C134.329 157.281 129.672 162.518 123.871 166.211C118.071 169.904 111.356 171.908 104.48 171.997C97.6038 172.086 90.8391 170.257 84.9446 166.716C79.0502 163.174 74.2593 158.06 71.1095 151.947L104 135L137.319 151.089Z" fill="#FF7992"/>
</g>
</g>
<defs>
<filter id="filter0_d_1_36" x="0" y="35" width="208" height="208" filterUnits="userSpaceOnUse" color-interpolation-filters="sRGB">
<feFlood flood-opacity="0" result="BackgroundImageFix"/>
<feColorMatrix in="SourceAlpha" type="matrix" values="0 0 0 0 0 0 0 0 0 0 0 0 0 0 0 0 0 0 127 0" result="hardAlpha"/>
<feOffset dy="4"/>
<feGaussianBlur stdDeviation="2"/>
<feComposite in2="hardAlpha" operator="out"/>
<feColorMatrix type="matrix" values="0 0 0 0 0 0 0 0 0 0 0 0 0 0 0 0 0 0 0.25 0"/>
<feBlend mode="normal" in2="BackgroundImageFix" result="effect1_dropShadow_1_36"/>
<feBlend mode="normal" in="SourceGraphic" in2="effect1_dropShadow_1_36" result="shape"/>
</filter>
<filter id="filter1_i_1_36" x="20" y="51" width="168" height="172" filterUnits="userSpaceOnUse" color-interpolation-filters="sRGB">
<feFlood flood-opacity="0" result="BackgroundImageFix"/>
<feBlend mode="normal" in="SourceGraphic" in2="BackgroundImageFix" result="shape"/>
<feColorMatrix in="SourceAlpha" type="matrix" values="0 0 0 0 0 0 0 0 0 0 0 0 0 0 0 0 0 0 127 0" result="hardAlpha"/>
<feOffset dy="4"/>
<feGaussianBlur stdDeviation="2"/>
<feComposite in2="hardAlpha" operator="arithmetic" k2="-1" k3="1"/>
<feColorMatrix type="matrix" values="0 0 0 0 0 0 0 0 0 0 0 0 0 0 0 0 0 0 0.25 0"/>
<feBlend mode="normal" in2="shape" result="effect1_innerShadow_1_36"/>
</filter>
<filter id="filter2_i_1_36" x="31.1054" y="49" width="156.895" height="170" filterUnits="userSpaceOnUse" color-interpolation-filters="sRGB">
<feFlood flood-opacity="0" result="BackgroundImageFix"/>
<feBlend mode="normal" in="SourceGraphic" in2="BackgroundImageFix" result="shape"/>
<feColorMatrix in="SourceAlpha" type="matrix" values="0 0 0 0 0 0 0 0 0 0 0 0 0 0 0 0 0 0 127 0" result="hardAlpha"/>
<feOffset dy="-2"/>
<feGaussianBlur stdDeviation="2"/>
<feComposite in2="hardAlpha" operator="arithmetic" k2="-1" k3="1"/>
<feColorMatrix type="matrix" values="0 0 0 0 0 0 0 0 0 0 0 0 0 0 0 0 0 0 0.25 0"/>
<feBlend mode="normal" in2="shape" result="effect1_innerShadow_1_36"/>
</filter>
<filter id="filter3_d_1_36" x="50.3" y="85.3" width="107.4" height="107.4" filterUnits="userSpaceOnUse" color-interpolation-filters="sRGB">
<feFlood flood-opacity="0" result="BackgroundImageFix"/>
<feColorMatrix in="SourceAlpha" type="matrix" values="0 0 0 0 0 0 0 0 0 0 0 0 0 0 0 0 0 0 127 0" result="hardAlpha"/>
<feMorphology radius="5" operator="erode" in="SourceAlpha" result="effect1_dropShadow_1_36"/>
<feOffset dy="4"/>
<feGaussianBlur stdDeviation="6.85"/>
<feComposite in2="hardAlpha" operator="out"/>
<feColorMatrix type="matrix" values="0 0 0 0 0 0 0 0 0 0 0 0 0 0 0 0 0 0 1 0"/>
<feBlend mode="normal" in2="BackgroundImageFix" result="effect1_dropShadow_1_36"/>
<feBlend mode="normal" in="SourceGraphic" in2="effect1_dropShadow_1_36" result="shape"/>
</filter>
<filter id="filter4_f_1_36" x="77.4641" y="75.1999" width="85.7623" height="82.6001" filterUnits="userSpaceOnUse" color-interpolation-filters="sRGB">
<feFlood flood-opacity="0" result="BackgroundImageFix"/>
<feBlend mode="normal" in="SourceGraphic" in2="BackgroundImageFix" result="shape"/>
<feGaussianBlur stdDeviation="11.4" result="effect1_foregroundBlur_1_36"/>
</filter>
<filter id="filter5_f_1_36" x="44.6095" y="108.5" width="119.209" height="90" filterUnits="userSpaceOnUse" color-interpolation-filters="sRGB">
<feFlood flood-opacity="0" result="BackgroundImageFix"/>
<feBlend mode="normal" in="SourceGraphic" in2="BackgroundImageFix" result="shape"/>
<feGaussianBlur stdDeviation="13.25" result="effect1_foregroundBlur_1_36"/>
</filter>
<linearGradient id="paint0_linear_1_36" x1="103.5" y1="1" x2="103.5" y2="84" gradientUnits="userSpaceOnUse">
<stop stop-color="#C50C3A"/>
<stop offset="1" stop-color="#5F061C"/>
</linearGradient>
<linearGradient id="paint1_linear_1_36" x1="103.5" y1="1" x2="103.5" y2="84" gradientUnits="userSpaceOnUse">
<stop stop-color="#FF7B8F"/>
<stop offset="0.415625" stop-color="#9C4865"/>
</linearGradient>
<linearGradient id="paint2_linear_1_36" x1="104" y1="35" x2="104" y2="235" gradientUnits="userSpaceOnUse">
<stop offset="0.100625" stop-color="#C50C3A"/>
<stop offset="0.225625" stop-color="#EA3966"/>
<stop offset="0.385625" stop-color="#C50C3A"/>
<stop offset="0.885" stop-color="#7D0C28"/>
<stop offset="1" stop-color="#6E021D"/>
</linearGradient>
<linearGradient id="paint3_linear_1_36" x1="104" y1="35" x2="104" y2="235" gradientUnits="userSpaceOnUse">
<stop stop-color="#FF7B8F"/>
<stop offset="1" stop-color="#9C4865"/>
</linearGradient>
<linearGradient id="paint4_linear_1_36" x1="104" y1="51" x2="104" y2="219" gradientUnits="userSpaceOnUse">
<stop stop-color="#731134"/>
<stop offset="1" stop-color="#BF2F61"/>
</linearGradient>
</defs>
</svg>
